<svg width="20" height="26" viewBox="0 0 20 26" fill="none" xmlns="http://www.w3.org/2000/svg">
<path d="M20 9.17488C19.987 9.06005 19.9618 8.94692 19.925 8.83738V8.72488C19.8649 8.59635 19.7847 8.47821 19.6875 8.37488L12.1875 0.874878C12.0842 0.777648 11.966 0.697479 11.8375 0.637378H11.7125C11.591 0.572382 11.4603 0.52603 11.325 0.499878H3.75C2.75544 0.499878 1.80161 0.894966 1.09835 1.59823C0.395088 2.30149 0 3.25532 0 4.24988V21.7499C0 22.7444 0.395088 23.6983 1.09835 24.4015C1.80161 25.1048 2.75544 25.4999 3.75 25.4999H16.25C17.2446 25.4999 18.1984 25.1048 18.9016 24.4015C19.6049 23.6983 20 22.7444 20 21.7499V9.24988C20 9.24988 20 9.24988 20 9.17488ZM12.5 4.76238L15.7375 7.99988H13.75C13.4185 7.99988 13.1005 7.86818 12.8661 7.63376C12.6317 7.39934 12.5 7.0814 12.5 6.74988V4.76238ZM17.5 21.7499C17.5 22.0814 17.3683 22.3993 17.1339 22.6338C16.8995 22.8682 16.5815 22.9999 16.25 22.9999H3.75C3.41848 22.9999 3.10054 22.8682 2.86612 22.6338C2.6317 22.3993 2.5 22.0814 2.5 21.7499V4.24988C2.5 3.91836 2.6317 3.60042 2.86612 3.36599C3.10054 3.13157 3.41848 2.99988 3.75 2.99988H10V6.74988C10 7.74444 10.3951 8.69827 11.0983 9.40153C11.8016 10.1048 12.7554 10.4999 13.75 10.4999H17.5V21.7499ZM11.6125 15.8624L11.25 16.2374V12.9999C11.25 12.6684 11.1183 12.3504 10.8839 12.116C10.6495 11.8816 10.3315 11.7499 10 11.7499C9.66848 11.7499 9.35054 11.8816 9.11612 12.116C8.88169 12.3504 8.75 12.6684 8.75 12.9999V16.2374L8.3875 15.8624C8.15212 15.627 7.83288 15.4948 7.5 15.4948C7.16712 15.4948 6.84788 15.627 6.6125 15.8624C6.37712 16.0978 6.24488 16.417 6.24488 16.7499C6.24488 17.0828 6.37712 17.402 6.6125 17.6374L9.1125 20.1374C9.23138 20.2512 9.37156 20.3404 9.525 20.3999C9.67462 20.466 9.83641 20.5002 10 20.5002C10.1636 20.5002 10.3254 20.466 10.475 20.3999C10.6284 20.3404 10.7686 20.2512 10.8875 20.1374L13.3875 17.6374C13.6229 17.402 13.7551 17.0828 13.7551 16.7499C13.7551 16.417 13.6229 16.0978 13.3875 15.8624C13.1521 15.627 12.8329 15.4948 12.5 15.4948C12.1671 15.4948 11.8479 15.627 11.6125 15.8624Z" fill="white"/>
</svg>
