<svg width="30" height="30" viewBox="0 0 30 30" fill="none" xmlns="http://www.w3.org/2000/svg">
<path d="M25.4251 11.65L7.92507 2.89998C7.23443 2.55624 6.45459 2.43387 5.69186 2.54954C4.92913 2.66522 4.22064 3.01332 3.66298 3.54637C3.10532 4.07943 2.72563 4.7715 2.57568 5.52824C2.42573 6.28498 2.51282 7.06954 2.82507 7.77498L5.82507 14.4875C5.89314 14.6498 5.92819 14.824 5.92819 15C5.92819 15.176 5.89314 15.3502 5.82507 15.5125L2.82507 22.225C2.57094 22.7959 2.46351 23.4212 2.51254 24.0442C2.56156 24.6672 2.76549 25.268 3.10579 25.7921C3.44609 26.3162 3.91197 26.747 4.46109 27.0452C5.01022 27.3435 5.62517 27.4998 6.25007 27.5C6.83535 27.4941 7.41193 27.3575 7.93757 27.1L25.4376 18.35C26.0583 18.0377 26.5801 17.5591 26.9447 16.9676C27.3093 16.376 27.5023 15.6948 27.5023 15C27.5023 14.3051 27.3093 13.6239 26.9447 13.0324C26.5801 12.4408 26.0583 11.9622 25.4376 11.65H25.4251ZM24.3126 16.1125L6.81257 24.8625C6.58277 24.9728 6.32473 25.0103 6.07305 24.9698C5.82137 24.9293 5.58808 24.8129 5.40446 24.636C5.22084 24.4592 5.09567 24.2305 5.04573 23.9805C4.99579 23.7305 5.02347 23.4713 5.12507 23.2375L8.11257 16.525C8.15124 16.4353 8.18463 16.3435 8.21257 16.25H16.8251C17.1566 16.25 17.4745 16.1183 17.7089 15.8839C17.9434 15.6494 18.0751 15.3315 18.0751 15C18.0751 14.6685 17.9434 14.3505 17.7089 14.1161C17.4745 13.8817 17.1566 13.75 16.8251 13.75H8.21257C8.18463 13.6564 8.15124 13.5646 8.11257 13.475L5.12507 6.76248C5.02347 6.52868 4.99579 6.26941 5.04573 6.01944C5.09567 5.76946 5.22084 5.54073 5.40446 5.36391C5.58808 5.18709 5.82137 5.07064 6.07305 5.03017C6.32473 4.9897 6.58277 5.02714 6.81257 5.13748L24.3126 13.8875C24.5173 13.9924 24.6892 14.1517 24.8091 14.348C24.9291 14.5443 24.9926 14.7699 24.9926 15C24.9926 15.23 24.9291 15.4556 24.8091 15.6519C24.6892 15.8482 24.5173 16.0076 24.3126 16.1125Z" fill="white"/>
</svg>
