<svg width="33" height="33" viewBox="0 0 33 33" fill="none" xmlns="http://www.w3.org/2000/svg">
<path d="M26.2501 12.5124L28.073 8.50281L32.0834 6.68025L28.073 4.8577L26.2501 0.848083L24.4272 4.8577L20.4167 6.68025L24.4272 8.50281L26.2501 12.5124Z" fill="#402EB4"/>
<path d="M26.2501 21.2607L24.4272 25.2703L20.4167 27.0929L24.4272 28.9154L26.2501 32.925L28.073 28.9154L32.0834 27.0929L28.073 25.2703L26.2501 21.2607Z" fill="#402EB4"/>
<path d="M15.3125 13.2415L11.6667 5.22223L8.02083 13.2415L0 16.8866L8.02083 20.5317L11.6667 28.5509L15.3125 20.5317L23.3333 16.8866L15.3125 13.2415ZM13.1104 18.33L11.6667 21.5086L10.2229 18.33L7.04375 16.8866L10.2229 15.4431L11.6667 12.2646L13.1104 15.4431L16.2896 16.8866L13.1104 18.33Z" fill="#402EB4"/>
</svg>
