<svg width="25" height="27" viewBox="0 0 25 27" fill="none" xmlns="http://www.w3.org/2000/svg">
<path d="M10.8966 23.0658C10.8965 22.9008 10.8639 22.7379 10.8008 22.5885C10.7378 22.4391 10.646 22.3069 10.5319 22.2013C10.4178 22.0958 10.2841 22.0194 10.1405 21.9776C9.99685 21.9358 9.84669 21.9296 9.70065 21.9595C8.37521 22.2298 6.70172 22.2704 6.25677 20.8817C5.86878 19.8062 5.22611 18.8674 4.39689 18.1649C4.33773 18.1291 4.28134 18.0879 4.22831 18.0418C4.15574 17.8291 4.02684 17.6458 3.85861 17.5162C3.69039 17.3865 3.49074 17.3166 3.28601 17.3156H3.28107C3.01336 17.3155 2.75652 17.4332 2.56676 17.6431C2.377 17.8529 2.26978 18.1377 2.26857 18.4351C2.26461 19.3525 3.08971 19.9402 3.42444 20.1391C3.81916 20.5798 4.13638 21.0984 4.35982 21.6684C4.72863 22.8198 5.80045 24.5666 8.88146 24.3414C8.88247 24.3809 8.88343 24.4183 8.88393 24.4523L8.88838 24.7534C8.88838 25.0517 8.99505 25.3379 9.18493 25.5489C9.37481 25.7598 9.63234 25.8784 9.90088 25.8784C10.1694 25.8784 10.4269 25.7598 10.6168 25.5489C10.8067 25.3379 10.9134 25.0517 10.9134 24.7534L10.9084 24.3952C10.9035 24.182 10.8966 23.8733 10.8966 23.0658ZM21.6969 6.04906C21.729 5.90843 21.7607 5.75243 21.7884 5.57664C21.9521 4.32293 21.8094 3.04336 21.3751 1.87202C21.3203 1.71932 21.2361 1.58178 21.1284 1.46905C21.0207 1.35632 20.8921 1.27113 20.7516 1.21944C20.3912 1.08431 19.0604 0.818436 16.5153 2.62569C14.3997 2.07252 12.1974 2.07252 10.0818 2.62569C7.54712 0.844907 6.22315 1.08656 5.8662 1.214C5.72229 1.26359 5.59019 1.34833 5.47958 1.46201C5.36897 1.57569 5.28266 1.71544 5.22696 1.871C4.78379 3.06482 4.64259 4.37049 4.8186 5.64699C4.84333 5.79091 4.87002 5.92385 4.89771 6.04579C4.05892 7.28716 3.61215 8.80133 3.62665 10.3535C3.62391 10.6998 3.63827 11.0461 3.66966 11.3906C4.00783 16.5685 7.04533 18.1231 9.16177 18.657C9.11778 18.7976 9.07773 18.9481 9.04213 19.1074C8.97869 19.3969 9.02114 19.7025 9.16019 19.9572C9.29923 20.212 9.52352 20.395 9.78386 20.4663C10.0442 20.5376 10.3194 20.4912 10.549 20.3374C10.7786 20.1836 10.944 19.9349 11.0088 19.6458C11.0732 19.2709 11.2383 18.9266 11.4824 18.6581C11.63 18.5145 11.7368 18.3264 11.79 18.1166C11.8431 17.9068 11.8402 17.6844 11.7816 17.4764C11.7231 17.2684 11.6114 17.0838 11.4601 16.945C11.3089 16.8063 11.1246 16.7194 10.9297 16.6948C7.43242 16.251 5.91416 14.6679 5.68576 11.1841C5.66046 10.9082 5.64907 10.6309 5.65165 10.3535C5.6354 9.24728 5.96433 8.16888 6.58257 7.30154C6.64469 7.21112 6.71085 7.12421 6.78082 7.04116C6.90478 6.88704 6.98812 6.69794 7.0217 6.49464C7.05528 6.29134 7.0378 6.08168 6.97117 5.8887C6.90286 5.68567 6.85026 5.47653 6.81395 5.26357C6.73147 4.658 6.75852 4.04023 6.89354 3.44642C7.77354 3.72258 8.60174 4.1721 9.33873 4.77356C9.4606 4.86376 9.5985 4.92378 9.74309 4.94956C9.88767 4.97534 10.0356 4.96628 10.1767 4.92299C12.2231 4.30592 14.3805 4.30631 16.4267 4.92411C16.5686 4.96736 16.7173 4.9759 16.8625 4.94916C17.0077 4.92242 17.1459 4.86103 17.2677 4.76921C18.0012 4.16524 18.8259 3.71171 19.703 3.42998C19.8374 4.00953 19.8675 4.61286 19.7915 5.20536C19.7548 5.43884 19.6975 5.66773 19.6204 5.88872C19.5538 6.08171 19.5363 6.29136 19.5699 6.49466C19.6035 6.69797 19.6868 6.88706 19.8108 7.04118C19.8889 7.13896 19.967 7.24442 20.0372 7.3433C20.6511 8.19596 20.9745 9.26196 20.9504 10.3535C20.9522 10.6456 20.9395 10.9375 20.9123 11.228C20.6893 14.6657 19.1652 16.2499 15.6516 16.6948C15.4566 16.7195 15.2723 16.8066 15.1211 16.9455C14.9698 17.0844 14.8582 17.2691 14.7997 17.4772C14.7412 17.6853 14.7384 17.9078 14.7916 18.1176C14.8448 18.3275 14.9517 18.5156 15.0993 18.6592C15.3511 18.9348 15.5166 19.293 15.5715 19.6809C15.6399 19.9821 15.6713 20.2921 15.6649 20.6027V23.2284C15.655 23.9568 15.655 24.5028 15.655 24.7533C15.655 25.0517 15.7617 25.3378 15.9516 25.5488C16.1414 25.7598 16.399 25.8783 16.6675 25.8783C16.936 25.8783 17.1936 25.7598 17.3834 25.5488C17.5733 25.3378 17.68 25.0517 17.68 24.7533C17.68 24.5094 17.68 23.9744 17.6899 23.246V20.6027C17.698 20.1052 17.6453 19.6089 17.5332 19.1272C17.5011 18.9691 17.4618 18.8129 17.4155 18.6592C18.9558 18.3749 20.3553 17.4925 21.3649 16.1691C22.3745 14.8458 22.9287 13.1673 22.9289 11.4324C22.9622 11.074 22.9778 10.7138 22.9754 10.3535C22.9979 8.79965 22.5474 7.28285 21.6969 6.04906Z" fill="#6F5FDB"/>
</svg>
