<svg width="27" height="27" viewBox="0 0 27 27" fill="none" xmlns="http://www.w3.org/2000/svg">
<path d="M13.5002 16.0833C13.7556 16.0833 14.0054 16.0076 14.2178 15.8657C14.4302 15.7237 14.5957 15.522 14.6935 15.286C14.7913 15.05 14.8168 14.7902 14.767 14.5397C14.7172 14.2891 14.5942 14.059 14.4135 13.8783C14.2329 13.6977 14.0027 13.5747 13.7522 13.5248C13.5016 13.475 13.2419 13.5006 13.0059 13.5983C12.7698 13.6961 12.5681 13.8617 12.4262 14.0741C12.2843 14.2865 12.2085 14.5362 12.2085 14.7917C12.2085 15.1342 12.3446 15.4628 12.5868 15.705C12.8291 15.9473 13.1576 16.0833 13.5002 16.0833ZM19.9585 16.0833C20.214 16.0833 20.4637 16.0076 20.6761 15.8657C20.8885 15.7237 21.0541 15.522 21.1518 15.286C21.2496 15.05 21.2752 14.7902 21.2253 14.5397C21.1755 14.2891 21.0525 14.059 20.8718 13.8783C20.6912 13.6977 20.461 13.5747 20.2105 13.5248C19.9599 13.475 19.7002 13.5006 19.4642 13.5983C19.2282 13.6961 19.0264 13.8617 18.8845 14.0741C18.7426 14.2865 18.6668 14.5362 18.6668 14.7917C18.6668 15.1342 18.8029 15.4628 19.0451 15.705C19.2874 15.9473 19.6159 16.0833 19.9585 16.0833ZM13.5002 21.25C13.7556 21.25 14.0054 21.1743 14.2178 21.0323C14.4302 20.8904 14.5957 20.6887 14.6935 20.4526C14.7913 20.2166 14.8168 19.9569 14.767 19.7064C14.7172 19.4558 14.5942 19.2256 14.4135 19.045C14.2329 18.8644 14.0027 18.7413 13.7522 18.6915C13.5016 18.6417 13.2419 18.6672 13.0059 18.765C12.7698 18.8628 12.5681 19.0283 12.4262 19.2407C12.2843 19.4531 12.2085 19.7029 12.2085 19.9583C12.2085 20.3009 12.3446 20.6295 12.5868 20.8717C12.8291 21.1139 13.1576 21.25 13.5002 21.25ZM19.9585 21.25C20.214 21.25 20.4637 21.1743 20.6761 21.0323C20.8885 20.8904 21.0541 20.6887 21.1518 20.4526C21.2496 20.2166 21.2752 19.9569 21.2253 19.7064C21.1755 19.4558 21.0525 19.2256 20.8718 19.045C20.6912 18.8644 20.461 18.7413 20.2105 18.6915C19.9599 18.6417 19.7002 18.6672 19.4642 18.765C19.2282 18.8628 19.0264 19.0283 18.8845 19.2407C18.7426 19.4531 18.6668 19.7029 18.6668 19.9583C18.6668 20.3009 18.8029 20.6295 19.0451 20.8717C19.2874 21.1139 19.6159 21.25 19.9585 21.25ZM7.04183 16.0833C7.2973 16.0833 7.54703 16.0076 7.75944 15.8657C7.97185 15.7237 8.13741 15.522 8.23517 15.286C8.33294 15.05 8.35852 14.7902 8.30868 14.5397C8.25884 14.2891 8.13582 14.059 7.95518 13.8783C7.77453 13.6977 7.54438 13.5747 7.29382 13.5248C7.04326 13.475 6.78355 13.5006 6.54753 13.5983C6.31151 13.6961 6.10978 13.8617 5.96785 14.0741C5.82592 14.2865 5.75016 14.5362 5.75016 14.7917C5.75016 15.1342 5.88625 15.4628 6.12848 15.705C6.37072 15.9473 6.69926 16.0833 7.04183 16.0833ZM22.5418 3.16668H21.2502V1.87501C21.2502 1.53244 21.1141 1.2039 20.8718 0.961664C20.6296 0.719429 20.3011 0.583344 19.9585 0.583344C19.6159 0.583344 19.2874 0.719429 19.0451 0.961664C18.8029 1.2039 18.6668 1.53244 18.6668 1.87501V3.16668H8.3335V1.87501C8.3335 1.53244 8.19741 1.2039 7.95518 0.961664C7.71294 0.719429 7.3844 0.583344 7.04183 0.583344C6.69926 0.583344 6.37072 0.719429 6.12848 0.961664C5.88625 1.2039 5.75016 1.53244 5.75016 1.87501V3.16668H4.4585C3.43078 3.16668 2.44516 3.57493 1.71846 4.30164C0.991754 5.02834 0.583496 6.01396 0.583496 7.04168V22.5417C0.583496 23.5694 0.991754 24.555 1.71846 25.2817C2.44516 26.0084 3.43078 26.4167 4.4585 26.4167H22.5418C23.5695 26.4167 24.5552 26.0084 25.2819 25.2817C26.0086 24.555 26.4168 23.5694 26.4168 22.5417V7.04168C26.4168 6.01396 26.0086 5.02834 25.2819 4.30164C24.5552 3.57493 23.5695 3.16668 22.5418 3.16668ZM23.8335 22.5417C23.8335 22.8842 23.6974 23.2128 23.4552 23.455C23.2129 23.6973 22.8844 23.8333 22.5418 23.8333H4.4585C4.11592 23.8333 3.78738 23.6973 3.54515 23.455C3.30292 23.2128 3.16683 22.8842 3.16683 22.5417V10.9167H23.8335V22.5417ZM23.8335 8.33334H3.16683V7.04168C3.16683 6.69911 3.30292 6.37056 3.54515 6.12833C3.78738 5.8861 4.11592 5.75001 4.4585 5.75001H22.5418C22.8844 5.75001 23.2129 5.8861 23.4552 6.12833C23.6974 6.37056 23.8335 6.69911 23.8335 7.04168V8.33334ZM7.04183 21.25C7.2973 21.25 7.54703 21.1743 7.75944 21.0323C7.97185 20.8904 8.13741 20.6887 8.23517 20.4526C8.33294 20.2166 8.35852 19.9569 8.30868 19.7064C8.25884 19.4558 8.13582 19.2256 7.95518 19.045C7.77453 18.8644 7.54438 18.7413 7.29382 18.6915C7.04326 18.6417 6.78355 18.6672 6.54753 18.765C6.31151 18.8628 6.10978 19.0283 5.96785 19.2407C5.82592 19.4531 5.75016 19.7029 5.75016 19.9583C5.75016 20.3009 5.88625 20.6295 6.12848 20.8717C6.37072 21.1139 6.69926 21.25 7.04183 21.25Z" fill="#6F5FDB"/>
</svg>
