<svg width="47" height="41" viewBox="0 0 47 41" fill="none" xmlns="http://www.w3.org/2000/svg">
<path d="M23.175 0C20.1316 0 17.118 0.589165 14.3063 1.73386C11.4946 2.87855 8.9398 4.55634 6.7878 6.67146C2.44164 10.9431 0 16.7367 0 22.7778V38.7222C0 39.3263 0.244164 39.9057 0.67878 40.3329C1.1134 40.76 1.70286 41 2.3175 41H9.27C11.1139 41 12.8823 40.2801 14.1862 38.9986C15.49 37.7171 16.2225 35.979 16.2225 34.1667V29.6111C16.2225 27.7988 15.49 26.0607 14.1862 24.7792C12.8823 23.4977 11.1139 22.7778 9.27 22.7778H4.635C4.635 17.9449 6.58832 13.3101 10.0652 9.89272C13.5422 6.47539 18.2579 4.55556 23.175 4.55556C28.0921 4.55556 32.8078 6.47539 36.2848 9.89272C39.7617 13.3101 41.715 17.9449 41.715 22.7778H37.08C35.2361 22.7778 33.4677 23.4977 32.1638 24.7792C30.86 26.0607 30.1275 27.7988 30.1275 29.6111V34.1667C30.1275 35.979 30.86 37.7171 32.1638 38.9986C33.4677 40.2801 35.2361 41 37.08 41H44.0325C44.6471 41 45.2366 40.76 45.6712 40.3329C46.1058 39.9057 46.35 39.3263 46.35 38.7222V22.7778C46.35 16.7367 43.9084 10.9431 39.5622 6.67146C35.216 2.39979 29.3214 0 23.175 0ZM9.27 27.3333C9.88464 27.3333 10.4741 27.5733 10.9087 28.0005C11.3433 28.4276 11.5875 29.007 11.5875 29.6111V34.1667C11.5875 34.7708 11.3433 35.3501 10.9087 35.7773C10.4741 36.2045 9.88464 36.4444 9.27 36.4444H4.635V27.3333H9.27ZM41.715 36.4444H37.08C36.4654 36.4444 35.8759 36.2045 35.4413 35.7773C35.0067 35.3501 34.7625 34.7708 34.7625 34.1667V29.6111C34.7625 29.007 35.0067 28.4276 35.4413 28.0005C35.8759 27.5733 36.4654 27.3333 37.08 27.3333H41.715V36.4444Z" fill="#19097D"/>
</svg>
