<svg width="24" height="25" viewBox="0 0 24 25" fill="none" xmlns="http://www.w3.org/2000/svg">
<path d="M20.4 5.72194H16.8V4.45904C16.8 3.45421 16.4207 2.49053 15.7456 1.78001C15.0705 1.06949 14.1548 0.670319 13.2 0.670319H10.8C9.84522 0.670319 8.92955 1.06949 8.25442 1.78001C7.57928 2.49053 7.2 3.45421 7.2 4.45904V5.72194H3.6C2.64522 5.72194 1.72955 6.12111 1.05442 6.83163C0.379285 7.54216 0 8.50583 0 9.51066V20.8768C0 21.8816 0.379285 22.8453 1.05442 23.5558C1.72955 24.2664 2.64522 24.6655 3.6 24.6655H20.4C21.3548 24.6655 22.2705 24.2664 22.9456 23.5558C23.6207 22.8453 24 21.8816 24 20.8768V9.51066C24 8.50583 23.6207 7.54216 22.9456 6.83163C22.2705 6.12111 21.3548 5.72194 20.4 5.72194ZM9.6 4.45904C9.6 4.12409 9.72643 3.80287 9.95147 3.56603C10.1765 3.32919 10.4817 3.19613 10.8 3.19613H13.2C13.5183 3.19613 13.8235 3.32919 14.0485 3.56603C14.2736 3.80287 14.4 4.12409 14.4 4.45904V5.72194H9.6V4.45904ZM21.6 20.8768C21.6 21.2118 21.4736 21.533 21.2485 21.7698C21.0235 22.0067 20.7183 22.1397 20.4 22.1397H3.6C3.28174 22.1397 2.97652 22.0067 2.75147 21.7698C2.52643 21.533 2.4 21.2118 2.4 20.8768V13.9308C3.57053 14.4195 4.77382 14.8163 6 15.118V15.8631C6 16.198 6.12643 16.5192 6.35147 16.7561C6.57652 16.9929 6.88174 17.126 7.2 17.126C7.51826 17.126 7.82348 16.9929 8.04853 16.7561C8.27357 16.5192 8.4 16.198 8.4 15.8631V15.5979C9.59322 15.7688 10.7958 15.8574 12 15.8631C13.2042 15.8574 14.4068 15.7688 15.6 15.5979V15.8631C15.6 16.198 15.7264 16.5192 15.9515 16.7561C16.1765 16.9929 16.4817 17.126 16.8 17.126C17.1183 17.126 17.4235 16.9929 17.6485 16.7561C17.8736 16.5192 18 16.198 18 15.8631V15.118C19.2262 14.8163 20.4295 14.4195 21.6 13.9308V20.8768ZM21.6 11.1651C20.4329 11.6835 19.2293 12.1057 18 12.428V12.0365C18 11.7015 17.8736 11.3803 17.6485 11.1435C17.4235 10.9066 17.1183 10.7736 16.8 10.7736C16.4817 10.7736 16.1765 10.9066 15.9515 11.1435C15.7264 11.3803 15.6 11.7015 15.6 12.0365V12.971C13.2135 13.3499 10.7865 13.3499 8.4 12.971V12.0365C8.4 11.7015 8.27357 11.3803 8.04853 11.1435C7.82348 10.9066 7.51826 10.7736 7.2 10.7736C6.88174 10.7736 6.57652 10.9066 6.35147 11.1435C6.12643 11.3803 6 11.7015 6 12.0365V12.4532C4.77074 12.131 3.56713 11.7087 2.4 11.1903V9.51066C2.4 9.17572 2.52643 8.85449 2.75147 8.61765C2.97652 8.38081 3.28174 8.24776 3.6 8.24776H20.4C20.7183 8.24776 21.0235 8.38081 21.2485 8.61765C21.4736 8.85449 21.6 9.17572 21.6 9.51066V11.1651Z" fill="#402EB4"/>
</svg>
