<svg width="38" height="43" viewBox="0 0 38 43" fill="none" xmlns="http://www.w3.org/2000/svg">
<path d="M37.3946 0.655312C37.2122 0.448887 36.9902 0.284018 36.7428 0.171197C36.4954 0.0583757 36.228 7.31479e-05 35.9576 0H1.94788C1.67752 0.000106098 1.41014 0.0584142 1.16274 0.171217C0.915336 0.284019 0.693334 0.448847 0.510846 0.655218C0.328358 0.86159 0.189379 1.10499 0.102746 1.36994C0.016114 1.63489 -0.0162756 1.91559 0.00763685 2.19419L2.96839 36.4509C3.00351 36.8591 3.15818 37.2466 3.41173 37.5614C3.66529 37.8763 4.00567 38.1037 4.38743 38.2132L18.4124 42.2434C18.5821 42.2923 18.7575 42.3172 18.9337 42.3172C19.1095 42.317 19.2844 42.2925 19.454 42.2444L33.517 38.2141C33.8989 38.1045 34.2394 37.877 34.4932 37.5619C34.7469 37.2469 34.9017 36.8593 34.937 36.4509L37.8977 2.19419C37.9217 1.91561 37.8894 1.63492 37.8027 1.36998C37.7161 1.10504 37.5771 0.861655 37.3946 0.655312ZM31.1763 34.7025L18.9347 38.2112L6.72913 34.7035L4.07744 4.03021H33.828L31.1763 34.7025ZM10.8103 22.1661H24.2408L23.6036 28.7575L18.6017 30.6054L12.4396 28.3285C12.1985 28.2391 11.9429 28.1998 11.6871 28.2127C11.4314 28.2256 11.1806 28.2905 10.9492 28.4037C10.7177 28.517 10.5101 28.6763 10.3382 28.8726C10.1663 29.0689 10.0335 29.2983 9.94735 29.5478C9.86123 29.7972 9.82347 30.0618 9.83626 30.3263C9.84904 30.5909 9.9121 30.8502 10.0218 31.0895C10.1316 31.3289 10.2858 31.5435 10.4758 31.721C10.6658 31.8986 10.8877 32.0358 11.1289 32.1245L17.9465 34.6434C18.3703 34.7996 18.8332 34.7996 19.2571 34.6434L26.0746 32.1245C26.4218 31.9962 26.7266 31.7685 26.9537 31.4681C27.1808 31.1677 27.3209 30.8068 27.3576 30.4273L28.3316 20.3518C28.3585 20.0716 28.3284 19.7888 28.2433 19.5214C28.1581 19.254 28.0198 19.008 27.8372 18.7993C27.6546 18.5906 27.4318 18.4237 27.1831 18.3095C26.9344 18.1952 26.6653 18.1361 26.3932 18.1359H12.5727L11.9887 12.0906H27.3671C27.8837 12.0906 28.3792 11.8783 28.7445 11.5004C29.1098 11.1225 29.315 10.61 29.315 10.0755C29.315 9.54108 29.1098 9.02853 28.7445 8.65062C28.3792 8.27272 27.8837 8.06041 27.3671 8.06041H9.83634C9.56422 8.06059 9.29516 8.11971 9.04646 8.23396C8.79777 8.34822 8.57496 8.51508 8.39237 8.72381C8.20978 8.93254 8.07146 9.17851 7.98631 9.44588C7.90117 9.71325 7.87109 9.99611 7.898 10.2762L8.87193 20.3518C8.9201 20.849 9.14511 21.3099 9.50329 21.6452C9.86147 21.9805 10.3273 22.1661 10.8103 22.1661Z" fill="#19097D"/>
</svg>
