<svg width="39" height="45" viewBox="0 0 39 45" fill="none" xmlns="http://www.w3.org/2000/svg">
<path d="M26.4173 0H7.51618C4.7549 0 2.50741 2.15008 2.50741 4.78857V22.4955H2.01811C0.90364 22.4955 0 23.3587 0 24.425V36.1271C0 37.1934 0.90364 38.0568 2.01811 38.0568H2.50741V40.2025C2.50741 42.8438 4.75499 44.991 7.51618 44.991H33.306C36.0657 44.991 38.3133 42.8438 38.3133 40.2025V11.333L26.4173 0ZM9.63961 33.1461C10.2189 33.1461 10.8612 33.0256 11.2397 32.8815L11.5287 34.3138C11.1764 34.483 10.3827 34.664 9.3505 34.664C6.41557 34.664 4.90414 32.9183 4.90414 30.6063C4.90414 27.8371 6.96998 26.2958 9.53908 26.2958C10.5343 26.2958 11.2896 26.4884 11.6295 26.6562L11.2397 28.1135C10.8489 27.9561 10.3074 27.8122 9.62741 27.8122C8.10289 27.8122 6.91922 28.6915 6.91922 30.4976C6.91922 32.1226 7.92681 33.1461 9.63961 33.1461ZM33.3059 42.0584H7.51618C6.447 42.0584 5.57625 41.226 5.57625 40.2025V38.0568H29.6177C30.7324 38.0568 31.6361 37.1934 31.6361 36.1271V24.425C31.6361 23.3587 30.7324 22.4955 29.6177 22.4955H5.57625V4.78857C5.57625 3.76779 6.447 2.93542 7.51618 2.93542L25.2698 2.91778V9.19165C25.2698 11.0241 26.8251 12.5125 28.7433 12.5125L35.1718 12.4949L35.2441 40.2025C35.2441 41.226 34.375 42.0584 33.3059 42.0584ZM14.9085 31.1358C13.4977 30.6667 12.578 29.9196 12.578 28.74C12.578 27.3544 13.7869 26.2957 15.7898 26.2957C16.7466 26.2957 17.4528 26.4883 17.9558 26.7046L17.5281 28.1856C17.1882 28.0297 16.5835 27.8001 15.7521 27.8001C14.9207 27.8001 14.5177 28.1621 14.5177 28.5828C14.5177 29.1004 14.9961 29.3298 16.0921 29.7268C17.5912 30.2564 18.2964 31.0034 18.2964 32.1477C18.2964 33.5079 17.2004 34.664 14.8706 34.664C13.9007 34.664 12.9432 34.4228 12.4648 34.1697L12.8554 32.6534C13.3717 32.9065 14.1654 33.158 14.9838 33.158C15.8652 33.158 16.3313 32.8094 16.3313 32.2798C16.3314 31.774 15.9284 31.4843 14.9085 31.1358ZM21.7132 31.1358C20.3026 30.6667 19.3827 29.9196 19.3827 28.74C19.3827 27.3544 20.5918 26.2957 22.5945 26.2957C23.5523 26.2957 24.2567 26.4883 24.7613 26.7046L24.333 28.1856C23.9929 28.0297 23.3884 27.8001 22.5569 27.8001C21.7255 27.8001 21.3225 28.1621 21.3225 28.5828C21.3225 29.1004 21.8009 29.3298 22.897 29.7268C24.396 30.2564 25.1015 31.0034 25.1015 32.1477C25.1015 33.5079 24.0055 34.664 21.6757 34.664C20.7056 34.664 19.748 34.4228 19.2697 34.1697L19.6605 32.6534C20.1765 32.9065 20.9703 33.158 21.7886 33.158C22.6701 33.158 23.1362 32.8094 23.1362 32.2798C23.1361 31.774 22.733 31.4843 21.7132 31.1358Z" fill="#19097D"/>
</svg>
