<svg width="43" height="45" viewBox="0 0 43 45" fill="none" xmlns="http://www.w3.org/2000/svg">
<path d="M19.3311 18.9815C18.5918 19.3788 17.9957 19.9712 17.6182 20.6839C17.2406 21.3966 17.0986 22.1974 17.21 22.9852C17.3214 23.773 17.6813 24.5124 18.2442 25.1098C18.807 25.7072 19.5476 26.1358 20.3721 26.3415C21.1967 26.5471 22.0682 26.5205 22.8765 26.2651C23.6848 26.0096 24.3936 25.5368 24.9133 24.9064C25.4329 24.276 25.74 23.5163 25.7958 22.7234C25.8516 21.9305 25.6536 21.14 25.2267 20.4519C24.6543 19.5292 23.7116 18.8559 22.606 18.5802C21.5004 18.3045 20.3224 18.4488 19.3311 18.9815ZM38.6758 23.3404C38.3924 23.039 38.0934 22.7367 37.7788 22.4337C37.9986 22.2186 38.2112 22.0038 38.4168 21.7892C42.2976 17.7304 43.9354 13.66 42.4178 11.2129C40.9626 8.86658 36.6337 8.16738 31.2143 9.14825C30.6805 9.24546 30.1496 9.35512 29.6217 9.47722C29.5207 9.15293 29.4132 8.83049 29.2993 8.50992C27.4608 3.35277 24.4909 -0.00177643 21.4555 7.05763e-07C18.5448 0.00123796 15.7317 3.14282 13.9371 8.00276C13.7605 8.48219 13.5972 8.96563 13.4471 9.45306C13.0941 9.37245 12.7397 9.29799 12.3838 9.22968C6.66593 8.1369 2.06056 8.85662 0.545868 11.3051C-0.906548 13.6531 0.6124 17.491 4.23977 21.3653C4.59951 21.7487 4.96944 22.1234 5.34955 22.4896C4.90145 22.9192 4.47713 23.3486 4.08164 23.7756C0.542195 27.5954 -0.889897 31.3705 0.560175 33.7083C2.05776 36.1232 6.59831 36.9125 12.1249 35.9002C12.5728 35.8175 13.0182 35.7245 13.4611 35.6212C13.6234 36.1485 13.8014 36.6711 13.9951 37.1892C15.7818 41.9516 18.5791 44.992 21.4795 44.991C24.4748 44.9894 27.4775 41.7227 29.2968 36.7605C29.4404 36.3684 29.5765 35.9611 29.7054 35.5418C30.2775 35.6743 30.8534 35.7919 31.4329 35.8946C36.7577 36.8323 40.9848 36.0948 42.4322 33.7552C43.9269 31.3386 42.3859 27.2855 38.6758 23.3404ZM2.33514 12.2642C3.26764 10.757 7.0313 10.169 11.9682 11.1124C12.2837 11.1728 12.6046 11.2403 12.9309 11.3149C12.4489 13.2995 12.1088 15.3118 11.9129 17.3384C10.1315 18.5049 8.4332 19.7775 6.82847 21.1482C6.47492 20.8079 6.1308 20.4593 5.79612 20.1024C2.68812 16.7828 1.45985 13.6791 2.33514 12.2642ZM11.7279 25.1498C10.494 24.2801 9.34737 23.3892 8.3066 22.493C9.34664 21.6025 10.494 20.7146 11.7254 19.8472C11.6811 20.7308 11.6592 21.615 11.6596 22.4999C11.6603 23.3835 11.683 24.2668 11.7279 25.1498ZM11.7264 34.0143C9.63181 34.4479 7.46937 34.5189 5.34713 34.2239C4.76536 34.1817 4.19905 34.0289 3.68321 33.775C3.16738 33.521 2.71296 33.1713 2.34805 32.7475C1.46821 31.3287 2.61813 28.2979 5.64515 25.031C6.02571 24.6216 6.41875 24.2229 6.82427 23.8348C8.42924 25.2127 10.1304 26.4903 11.9165 27.6592C12.1151 29.7117 12.4592 31.7497 12.9465 33.76C12.5421 33.8541 12.1354 33.9389 11.7264 34.0143ZM28.8875 15.9294C28.077 15.454 27.2564 14.9939 26.4258 14.549C25.6085 14.1111 24.7814 13.6896 23.9444 13.2846C25.3775 12.7237 26.7862 12.2447 28.1461 11.8543C28.4667 13.2002 28.7142 14.5603 28.8875 15.9294ZM15.8898 8.62748C17.4273 4.46325 19.7024 1.92264 21.4566 1.92194C23.3249 1.92111 25.7523 4.66248 27.3396 9.11516C27.4427 9.40542 27.5401 9.69732 27.632 9.99086C25.5467 10.5929 23.5064 11.3228 21.5247 12.1756C19.5512 11.3127 17.5173 10.5747 15.4371 9.9667C15.5762 9.51691 15.727 9.0705 15.8898 8.62748ZM14.9222 11.8304C16.3407 12.2461 17.7359 12.7281 19.1022 13.2746C17.4092 14.0879 15.76 14.9737 14.1545 15.9322C14.3484 14.497 14.6065 13.1219 14.9222 11.8304ZM14.158 29.0634C14.9586 29.5405 15.771 30 16.595 30.4418C17.4356 30.8923 18.2874 31.3238 19.1503 31.7365C17.7735 32.3019 16.3664 32.8012 14.9346 33.2323C14.6152 31.9228 14.3543 30.5236 14.158 29.0634ZM27.3426 36.1394C26.6996 38.045 25.6854 39.8242 24.3505 41.3881C24.0206 41.8361 23.5954 42.2165 23.1014 42.5055C22.6075 42.7945 22.0551 42.9862 21.4784 43.0687C19.7185 43.0696 17.4724 40.6279 15.9444 36.5552C15.7645 36.0737 15.5989 35.5878 15.4478 35.0975C17.5379 34.4698 19.58 33.711 21.5599 32.8261C23.558 33.6845 25.6145 34.4198 27.7161 35.0274C27.6013 35.4007 27.4768 35.7714 27.3426 36.1394ZM28.218 33.1605C26.8424 32.7646 25.4132 32.2775 23.9595 31.7084C24.779 31.3069 25.6045 30.8829 26.4359 30.4364C27.289 29.9778 28.1205 29.5077 28.9301 29.0262C28.7688 30.4147 28.5312 31.7946 28.218 33.1605ZM29.2965 22.4916C29.2983 23.8578 29.2525 25.2228 29.159 26.5868C27.9684 27.3368 26.7114 28.0692 25.4035 28.772C24.1011 29.472 22.8106 30.1153 21.5448 30.6974C20.2127 30.1032 18.9062 29.4628 17.6255 28.7763C16.352 28.094 15.1076 27.3674 13.8925 26.5965C13.7815 25.233 13.7255 23.867 13.7247 22.4985C13.7237 21.1309 13.7787 19.7653 13.8892 18.4006C15.0795 17.6439 16.3273 16.9121 17.6175 16.2187C18.9136 15.5221 20.2203 14.8816 21.5197 14.301C22.8354 14.8962 24.1274 15.5341 25.3956 16.2146C26.6682 16.8955 27.916 17.6143 29.139 18.3712C29.244 19.7426 29.2964 21.116 29.2965 22.4916ZM31.6086 11.0351C36.2518 10.1944 39.7528 10.7599 40.6298 12.1738C41.5641 13.6802 40.2251 17.007 36.8747 20.5114C36.6896 20.7048 36.4974 20.899 36.2984 21.094C34.6659 19.7204 32.9348 18.4518 31.1172 17.2971C30.9337 15.2927 30.6064 13.3019 30.1373 11.3382C30.6373 11.2237 31.1277 11.1227 31.6086 11.0351ZM31.2947 19.7739C32.5208 20.6071 33.6996 21.499 34.8263 22.446C33.7045 23.4085 32.5295 24.3158 31.3059 25.1641C31.3434 24.2734 31.3618 23.3823 31.3612 22.4907C31.3608 21.5849 31.3386 20.6793 31.2947 19.7739ZM40.6426 32.7959C39.7643 34.2158 36.3703 34.8078 31.8164 34.0058C31.2946 33.9141 30.7591 33.805 30.21 33.6784C30.6677 31.6894 30.9806 29.6739 31.1463 27.6456C32.9609 26.4708 34.6866 25.1811 36.311 23.7857C36.5952 24.0606 36.8656 24.3342 37.1221 24.6065C38.5746 26.0767 39.7241 27.783 40.5128 29.6406C40.7651 30.1303 40.9067 30.663 40.9291 31.2058C40.9514 31.7485 40.8539 32.2897 40.6426 32.7959Z" fill="#19097D"/>
</svg>
