<svg width="33" height="25" viewBox="0 0 33 25" fill="none" xmlns="http://www.w3.org/2000/svg">
<path d="M32.1985 9.12592L30.6268 8.29694L16.4819 0.760753H16.309C16.2126 0.721683 16.1127 0.691405 16.0104 0.670319H15.7118H15.4289C15.3215 0.691419 15.2163 0.721684 15.1145 0.760753H14.9417L0.796749 8.29694C0.554874 8.4284 0.353689 8.61903 0.213718 8.8494C0.0737471 9.07976 0 9.34161 0 9.60824C0 9.87486 0.0737471 10.1367 0.213718 10.3671C0.353689 10.5974 0.554874 10.7881 0.796749 10.9195L4.71017 12.9995V20.1438C4.71017 21.3431 5.20693 22.4932 6.09116 23.3412C6.97539 24.1891 8.17466 24.6655 9.42515 24.6655H21.9984C23.2489 24.6655 24.4482 24.1891 25.3324 23.3412C26.2166 22.4932 26.7134 21.3431 26.7134 20.1438V12.9995L29.8567 11.3114V15.6221C29.8567 16.0219 30.0223 16.4052 30.317 16.6879C30.6118 16.9706 31.0115 17.1294 31.4283 17.1294C31.8452 17.1294 32.2449 16.9706 32.5397 16.6879C32.8344 16.4052 33 16.0219 33 15.6221V10.4372C32.9995 10.1701 32.925 9.90798 32.7842 9.67757C32.6434 9.44717 32.4412 9.25679 32.1985 9.12592ZM23.5701 20.1438C23.5701 20.5436 23.4045 20.9269 23.1097 21.2096C22.815 21.4923 22.4152 21.6511 21.9984 21.6511H9.42515C9.00832 21.6511 8.60856 21.4923 8.31382 21.2096C8.01907 20.9269 7.85349 20.5436 7.85349 20.1438V14.6726L14.9417 18.4406L15.1774 18.5311H15.3189C15.4493 18.5468 15.5813 18.5468 15.7118 18.5311C15.8422 18.5468 15.9742 18.5468 16.1047 18.5311H16.2461C16.3296 18.5142 16.4093 18.4836 16.4819 18.4406L23.5701 14.6726V20.1438ZM15.7118 15.4111L4.80447 9.59316L15.7118 3.77523L26.6191 9.59316L15.7118 15.4111Z" fill="#402EB4"/>
</svg>
