<svg width="41" height="45" viewBox="0 0 41 45" fill="none" xmlns="http://www.w3.org/2000/svg">
<path d="M25.9932 28.9809C24.3013 29.1457 22.597 28.8355 21.0719 28.085C20.7264 27.8086 20.4412 27.4644 20.234 27.0735C20.0268 26.6827 19.9019 26.2535 19.867 25.8125C19.8663 25.7465 19.8526 25.6813 19.8265 25.6207C19.8004 25.5601 19.7626 25.5052 19.7151 25.4593C19.6677 25.4134 19.6117 25.3773 19.5502 25.3533C19.4888 25.3292 19.4231 25.3175 19.3572 25.3189C18.6448 25.3102 17.9326 25.3122 17.2204 25.3179C17.096 25.3052 16.9715 25.3421 16.8741 25.4206C16.7766 25.499 16.714 25.6127 16.6998 25.737C16.6592 26.5107 16.79 27.2838 17.0829 28.0011C17.3758 28.7184 17.8236 29.3622 18.3942 29.8864C19.8346 31.0102 21.5837 31.668 23.4078 31.772C25.3085 31.9924 27.2321 31.9107 29.1072 31.53C30.5471 31.2615 31.8672 30.5502 32.8833 29.4955C33.445 28.8031 33.8214 27.9793 33.9773 27.1015C34.1331 26.2236 34.0633 25.3206 33.7743 24.4772C33.5315 23.8827 33.1558 23.3516 32.6759 22.9248C32.196 22.498 31.6247 22.1868 31.0059 22.015C28.1241 21.004 25.0112 21.0805 22.0734 20.3123C21.5633 20.1518 20.9401 19.9776 20.7128 19.4377C20.5815 19.0578 20.5725 18.6463 20.6872 18.261C20.8019 17.8757 21.0345 17.5361 21.3523 17.2899C22.2747 16.7628 23.325 16.5013 24.3869 16.5344C25.8281 16.3988 27.281 16.6066 28.6263 17.1409C29.0304 17.3785 29.378 17.7012 29.6449 18.0867C29.9117 18.4721 30.0914 18.911 30.1715 19.3729C30.1754 19.5092 30.23 19.6391 30.3248 19.7372C30.4195 19.8353 30.5475 19.8944 30.6836 19.903C31.3909 19.9174 32.0984 19.9068 32.8056 19.9078C32.9283 19.9225 33.0521 19.8924 33.1543 19.8231C33.2566 19.7537 33.3303 19.6499 33.3621 19.5305C33.3684 18.5767 33.1253 17.6378 32.657 16.8069C32.1887 15.9759 31.5114 15.2816 30.6921 14.7929C28.4309 13.7495 25.921 13.3656 23.4512 13.6852C21.6416 13.7593 19.9127 14.4537 18.5548 15.652C17.9315 16.3237 17.5094 17.157 17.3366 18.0569C17.1638 18.9568 17.2472 19.8871 17.5775 20.7419C17.8346 21.3145 18.2128 21.8246 18.686 22.2369C19.1593 22.6493 19.7164 22.9541 20.3188 23.1304C23.191 24.1676 26.3388 23.8348 29.2388 24.752C29.8039 24.9437 30.462 25.2368 30.6351 25.8656C30.7282 26.2425 30.7211 26.6372 30.6147 27.0105C30.5083 27.3838 30.3062 27.7229 30.0284 27.9941C28.8223 28.7432 27.4089 29.0888 25.9932 28.9809ZM39.0857 9.98248C33.4782 6.8121 27.8693 3.64458 22.2592 0.479926C21.6963 0.16523 21.0621 0 20.4172 0C19.7723 0 19.1381 0.16523 18.5752 0.479926C12.9869 3.63501 7.39833 6.78995 1.80945 9.94474C1.26575 10.241 0.811241 10.6774 0.493071 11.2085C0.174901 11.7396 0.00465685 12.3462 0 12.9652V32.0286C0.00894874 32.6589 0.18836 33.2751 0.519205 33.8117C0.85005 34.3484 1.31999 34.7855 1.8792 35.0767C3.4846 35.9504 5.04436 36.913 6.67885 37.7286C7.62224 38.2328 8.67005 38.5106 9.73938 38.54C10.8087 38.5694 11.8702 38.3496 12.8398 37.8979C13.5654 37.4435 14.1558 36.8028 14.5495 36.0427C14.9432 35.2826 15.1257 34.4308 15.0782 33.5762C15.0907 27.2848 15.0801 20.9932 15.083 14.7018C15.0939 14.633 15.0902 14.5626 15.0721 14.4954C15.054 14.4281 15.0219 14.3655 14.9778 14.3115C14.9338 14.2575 14.8789 14.2135 14.8166 14.1822C14.7544 14.1509 14.6862 14.1331 14.6166 14.13C13.9025 14.1185 13.1873 14.1233 12.4732 14.1281C12.4071 14.1222 12.3404 14.1303 12.2777 14.1519C12.2149 14.1735 12.1574 14.2082 12.109 14.2535C12.0605 14.2989 12.0222 14.354 11.9966 14.4153C11.971 14.4765 11.9586 14.5424 11.9602 14.6088C11.9506 20.8598 11.9621 27.1125 11.9544 33.3644C11.9561 33.796 11.8257 34.2177 11.5808 34.573C11.3358 34.9284 10.9881 35.2003 10.5842 35.3524C10.1191 35.4899 9.63015 35.5277 9.14942 35.4634C8.66869 35.399 8.20694 35.234 7.79434 34.9791C6.30706 34.1393 4.81981 33.2995 3.33259 32.4599C3.23404 32.4132 3.15217 32.3374 3.09801 32.2428C3.04385 32.1482 3.01999 32.0392 3.02965 31.9306C3.02965 25.6411 3.02965 19.3518 3.02965 13.0629C3.0193 12.9406 3.0479 12.8181 3.11134 12.713C3.17478 12.6079 3.26982 12.5255 3.3829 12.4776C8.95286 9.34113 14.5218 6.20137 20.0896 3.05833C20.1863 2.9923 20.3007 2.95706 20.4178 2.95723C20.5349 2.9574 20.6493 2.99298 20.7458 3.0593C26.3155 6.19675 31.885 9.33529 37.4543 12.4749C37.5668 12.5241 37.6612 12.6073 37.7242 12.7127C37.7872 12.8181 37.8156 12.9406 37.8056 13.063C37.8046 19.3514 37.804 25.6403 37.8037 31.9297C37.8135 32.0388 37.7903 32.1483 37.7369 32.2439C37.6835 32.3395 37.6026 32.4169 37.5046 32.4658C32.0199 35.5665 26.5323 38.6627 21.0418 41.7544C20.7795 41.9005 20.469 42.1356 20.1622 41.9586C18.7243 41.1448 17.3039 40.2994 15.8707 39.4779C15.7974 39.4219 15.7091 39.389 15.6171 39.3835C15.525 39.378 15.4334 39.4001 15.3539 39.4469C14.7227 39.8167 14.0582 40.1267 13.3693 40.3729C13.0586 40.4986 12.6764 40.5345 12.4626 40.8225C12.7352 41.119 13.0653 41.3568 13.433 41.5213C15.1091 42.4916 16.7861 43.461 18.464 44.4296C19.0189 44.778 19.6571 44.9714 20.3122 44.9896C20.9672 45.0078 21.6152 44.8502 22.1886 44.5331C27.7777 41.3822 33.3666 38.2299 38.9553 35.0761C39.514 34.7844 39.9836 34.3472 40.3145 33.8108C40.6454 33.2744 40.8254 32.6587 40.8354 32.0285V12.9652C40.8307 12.3584 40.6666 11.7634 40.3596 11.2399C40.0525 10.7164 39.6132 10.2828 39.0857 9.98248Z" fill="#19097D"/>
</svg>
