<svg width="47" height="41" viewBox="0 0 47 41" fill="none" xmlns="http://www.w3.org/2000/svg">
<path d="M44.3983 0.385168C42.7393 0.134882 41.0594 0.00605044 39.376 8.81862e-06C33.6324 -0.0041154 28.0087 1.43842 23.175 4.15568C18.3289 1.4741 12.706 0.0669674 6.974 0.101366C5.29059 0.107408 3.61068 0.23624 1.95168 0.486526C1.40827 0.568582 0.916164 0.817882 0.563983 1.18953C0.211802 1.56118 0.0226919 2.03075 0.0307084 2.51368V26.8395C0.0257516 27.1374 0.0958045 27.4326 0.235883 27.704C0.375961 27.9755 0.582621 28.2165 0.841159 28.4101C1.0997 28.6036 1.40376 28.7449 1.73171 28.8238C2.05966 28.9027 2.40344 28.9174 2.73859 28.8667C6.05521 28.3637 9.45322 28.4472 12.7324 29.1121C16.0117 29.7771 19.1058 31.0101 21.8326 32.7386L22.1104 32.8805H22.3649C22.6216 32.9741 22.8969 33.0224 23.175 33.0224C23.4531 33.0224 23.7284 32.9741 23.9851 32.8805H24.2396L24.5174 32.7386C27.2252 30.9715 30.3104 29.6985 33.5903 28.9951C36.8701 28.2917 40.2778 28.1722 43.6114 28.6437C43.9466 28.6944 44.2903 28.6797 44.6183 28.6008C44.9462 28.5219 45.2503 28.3806 45.5088 28.1871C45.7674 27.9935 45.974 27.7525 46.1141 27.481C46.2542 27.2096 46.3242 26.9144 46.3193 26.6166V2.29069C46.2952 1.82881 46.0916 1.38802 45.7422 1.04144C45.3928 0.694847 44.9186 0.463288 44.3983 0.385168ZM20.8606 27.3261C16.5786 25.353 11.8124 24.3233 6.974 24.3259C6.21023 24.3259 5.44647 24.3259 4.65957 24.3259V4.05432C5.4304 4.01541 6.20316 4.01541 6.974 4.05432C11.9116 4.04954 16.7414 5.31864 20.8606 7.7032V27.3261ZM41.6904 24.407C40.9035 24.407 40.1398 24.407 39.376 24.407C34.5376 24.4043 29.7714 25.4341 25.4894 27.4071V7.7032C29.6086 5.31864 34.4384 4.04954 39.376 4.05432C40.1468 4.01541 40.9196 4.01541 41.6904 4.05432V24.407ZM44.3983 32.8197C42.7393 32.5694 41.0594 32.4405 39.376 32.4345C33.6324 32.4304 28.0087 33.8729 23.175 36.5902C18.3413 33.8729 12.7176 32.4304 6.974 32.4345C5.29059 32.4405 3.61068 32.5694 1.95168 32.8197C1.65041 32.8615 1.36156 32.9552 1.10174 33.0951C0.841921 33.2351 0.616262 33.4187 0.437739 33.6354C0.259217 33.852 0.131352 34.0975 0.061499 34.3575C-0.00835432 34.6176 -0.0188184 34.8872 0.0307084 35.1509C0.148325 35.6773 0.499358 36.1414 1.00691 36.4416C1.51447 36.7418 2.13716 36.8535 2.73859 36.7523C6.05521 36.2494 9.45322 36.3328 12.7324 36.9978C16.0117 37.6627 19.1058 38.8958 21.8326 40.6242C22.2246 40.8686 22.6938 41 23.175 41C23.6562 41 24.1254 40.8686 24.5174 40.6242C27.2442 38.8958 30.3383 37.6627 33.6175 36.9978C36.8968 36.3328 40.2948 36.2494 43.6114 36.7523C44.2128 36.8535 44.8355 36.7418 45.3431 36.4416C45.8506 36.1414 46.2017 35.6773 46.3193 35.1509C46.3688 34.8872 46.3583 34.6176 46.2885 34.3575C46.2186 34.0975 46.0908 33.852 45.9123 33.6354C45.7337 33.4187 45.5081 33.2351 45.2483 33.0951C44.9884 32.9552 44.6996 32.8615 44.3983 32.8197Z" fill="#19097D"/>
</svg>
