<svg width="25" height="27" viewBox="0 0 25 27" fill="none" xmlns="http://www.w3.org/2000/svg">
<path d="M17.5567 6.1425C17.3163 6.1425 17.0814 6.22168 16.8816 6.37002C16.6818 6.51836 16.5261 6.7292 16.4341 6.97588C16.3422 7.22256 16.3181 7.494 16.365 7.75587C16.4119 8.01775 16.5276 8.25829 16.6975 8.44709C16.8674 8.6359 17.0839 8.76447 17.3196 8.81656C17.5553 8.86865 17.7996 8.84192 18.0216 8.73974C18.2436 8.63756 18.4334 8.46453 18.5669 8.24252C18.7004 8.02051 18.7717 7.75951 18.7717 7.4925C18.7717 7.13446 18.6436 6.79108 18.4158 6.53791C18.1879 6.28473 17.8789 6.1425 17.5567 6.1425ZM22.2142 8.865C22.1945 7.93159 22.0371 7.00808 21.7484 6.13125C21.491 5.38102 21.0903 4.70169 20.5739 4.14C20.0725 3.56335 19.4597 3.12095 18.7818 2.84625C17.9947 2.51568 17.1626 2.33686 16.3214 2.3175C15.2482 2.25 14.9039 2.25 12.1499 2.25C9.3959 2.25 9.05165 2.25 7.9784 2.3175C7.13717 2.33686 6.30509 2.51568 5.51803 2.84625C4.84135 3.12373 4.22905 3.56576 3.7259 4.14C3.20692 4.69708 2.80876 5.37799 2.56153 6.13125C2.26402 7.00576 2.10308 7.9303 2.08565 8.865C2.0249 10.0575 2.0249 10.44 2.0249 13.5C2.0249 16.56 2.0249 16.9425 2.08565 18.135C2.10308 19.0697 2.26402 19.9942 2.56153 20.8688C2.80876 21.622 3.20692 22.3029 3.7259 22.86C4.22905 23.4342 4.84135 23.8763 5.51803 24.1538C6.30509 24.4843 7.13717 24.6631 7.9784 24.6825C9.05165 24.75 9.3959 24.75 12.1499 24.75C14.9039 24.75 15.2482 24.75 16.3214 24.6825C17.1626 24.6631 17.9947 24.4843 18.7818 24.1538C19.4597 23.8791 20.0725 23.4366 20.5739 22.86C21.0925 22.3004 21.4936 21.6205 21.7484 20.8688C22.0371 19.9919 22.1945 19.0684 22.2142 18.135C22.2142 16.9425 22.2749 16.56 22.2749 13.5C22.2749 10.44 22.2749 10.0575 22.2142 8.865ZM20.3917 18C20.3843 18.7141 20.2679 19.4217 20.0474 20.0925C19.8857 20.5821 19.6261 21.0245 19.288 21.3863C18.9596 21.7581 18.5623 22.046 18.1237 22.23C17.5199 22.475 16.8831 22.6043 16.2404 22.6125C15.2279 22.6688 14.8533 22.68 12.1904 22.68C9.52753 22.68 9.1529 22.68 8.1404 22.6125C7.47305 22.6264 6.80855 22.5122 6.17615 22.275C5.75676 22.0816 5.37765 21.7944 5.0624 21.4313C4.72634 21.0698 4.46993 20.6271 4.31315 20.1375C4.06596 19.457 3.92885 18.7334 3.90815 18C3.90815 16.875 3.8474 16.4588 3.8474 13.5C3.8474 10.5413 3.8474 10.125 3.90815 9C3.91269 8.26994 4.03264 7.54644 4.26253 6.8625C4.44078 6.38765 4.71437 5.96437 5.0624 5.625C5.37001 5.23819 5.75018 4.93098 6.17615 4.725C6.79332 4.47755 7.4438 4.34821 8.0999 4.3425C9.1124 4.3425 9.48703 4.275 12.1499 4.275C14.8128 4.275 15.1874 4.275 16.1999 4.3425C16.8426 4.35069 17.4794 4.48003 18.0832 4.725C18.5433 4.91473 18.9562 5.2232 19.288 5.625C19.6198 5.97058 19.8791 6.39307 20.0474 6.8625C20.2724 7.54755 20.3889 8.27075 20.3917 9C20.4423 10.125 20.4524 10.5413 20.4524 13.5C20.4524 16.4588 20.4423 16.875 20.3917 18ZM12.1499 7.72875C11.123 7.73097 10.1198 8.07134 9.26697 8.70685C8.41413 9.34235 7.74996 10.2445 7.35838 11.2992C6.9668 12.354 6.86539 13.514 7.06694 14.6328C7.2685 15.7516 7.76399 16.7789 8.4908 17.5849C9.21762 18.3909 10.1431 18.9394 11.1504 19.1612C12.1577 19.3829 13.2016 19.268 14.1501 18.8309C15.0986 18.3937 15.9092 17.654 16.4795 16.7052C17.0498 15.7563 17.3542 14.641 17.3542 13.5C17.3555 12.7407 17.2217 11.9887 16.9605 11.2871C16.6993 10.5855 16.3159 9.94816 15.8322 9.41181C15.3486 8.87545 14.7743 8.45064 14.1423 8.1618C13.5103 7.87295 12.8332 7.72578 12.1499 7.72875ZM12.1499 17.2463C11.4831 17.2463 10.8312 17.0265 10.2767 16.6149C9.72227 16.2033 9.29012 15.6182 9.03493 14.9336C8.77974 14.2491 8.71297 13.4958 8.84306 12.7691C8.97316 12.0424 9.29427 11.3749 9.7658 10.851C10.2373 10.3271 10.8381 9.97028 11.4921 9.82573C12.1462 9.68118 12.8241 9.75537 13.4402 10.0389C14.0563 10.3225 14.5828 10.8026 14.9533 11.4187C15.3238 12.0348 15.5215 12.7591 15.5215 13.5C15.5215 13.992 15.4343 14.4791 15.2649 14.9336C15.0954 15.3881 14.8471 15.8011 14.534 16.149C14.2209 16.4969 13.8492 16.7728 13.4402 16.9611C13.0311 17.1494 12.5927 17.2463 12.1499 17.2463Z" fill="#6F5FDB"/>
</svg>
