<svg width="26" height="27" viewBox="0 0 26 27" fill="none" xmlns="http://www.w3.org/2000/svg">
<path d="M18.6185 10.1239C17.7121 10.1235 16.8197 10.3726 16.021 10.849C15.9482 10.6357 15.8186 10.4521 15.6496 10.3226C15.4806 10.1931 15.2801 10.1238 15.0748 10.1239H11.0248C10.8918 10.1238 10.7601 10.1529 10.6372 10.2094C10.5144 10.2659 10.4027 10.3487 10.3087 10.4532C10.2146 10.5577 10.1401 10.6817 10.0892 10.8183C10.0384 10.9548 10.0122 11.1011 10.0123 11.2489V24.7489C10.0122 24.8967 10.0383 25.043 10.0892 25.1795C10.1401 25.316 10.2146 25.4401 10.3087 25.5446C10.4027 25.6491 10.5144 25.7319 10.6372 25.7884C10.7601 25.8449 10.8918 25.874 11.0248 25.8739H15.0748C15.2078 25.874 15.3395 25.8449 15.4623 25.7884C15.5852 25.7319 15.6969 25.6491 15.7909 25.5446C15.8849 25.4401 15.9595 25.316 16.0104 25.1795C16.0612 25.043 16.0874 24.8967 16.0873 24.7489V18.5614C16.0873 18.263 16.194 17.9769 16.3838 17.7659C16.5737 17.5549 16.8313 17.4364 17.0998 17.4364C17.3683 17.4364 17.6259 17.5549 17.8157 17.7659C18.0056 17.9769 18.1123 18.263 18.1123 18.5614V24.7489C18.1122 24.8967 18.1384 25.043 18.1892 25.1795C18.2401 25.316 18.3146 25.4401 18.4087 25.5446C18.5027 25.6491 18.6144 25.7319 18.7372 25.7884C18.8601 25.8449 18.9918 25.874 19.1248 25.8739H23.1748C23.3078 25.874 23.4395 25.8449 23.5624 25.7884C23.6852 25.7319 23.7969 25.6491 23.8909 25.5446C23.9849 25.4401 24.0595 25.316 24.1104 25.1795C24.1612 25.043 24.1874 24.8967 24.1873 24.7489V16.3114C24.1855 14.671 23.5982 13.0984 22.5542 11.9384C21.5103 10.7785 20.0949 10.1259 18.6185 10.1239ZM22.1623 23.6239H20.1373V18.5614C20.1373 17.6663 19.8173 16.8078 19.2476 16.1749C18.678 15.542 17.9054 15.1864 17.0998 15.1864C16.2942 15.1864 15.5216 15.542 14.952 16.1749C14.3823 16.8078 14.0623 17.6663 14.0623 18.5614V23.6239H12.0373V12.3739H14.0623V13.1649C14.0624 13.398 14.1277 13.6253 14.249 13.8154C14.3704 14.0056 14.5419 14.1491 14.7399 14.2263C14.9378 14.3035 15.1525 14.3105 15.3542 14.2463C15.5559 14.1821 15.7346 14.0499 15.8658 13.868C16.3202 13.2268 16.9434 12.7593 17.6486 12.5307C18.3537 12.3021 19.1054 12.3239 19.7988 12.5929C20.4923 12.862 21.0928 13.365 21.5165 14.0316C21.9402 14.6983 22.166 15.4953 22.1623 16.3114V23.6239ZM7.98729 10.1239H3.93729C3.80431 10.1238 3.67261 10.1529 3.54973 10.2094C3.42686 10.2659 3.31521 10.3487 3.22118 10.4532C3.12714 10.5577 3.05256 10.6817 3.00171 10.8183C2.95085 10.9548 2.92471 11.1011 2.92479 11.2489V24.7489C2.92471 24.8967 2.95085 25.043 3.00171 25.1795C3.05256 25.316 3.12714 25.4401 3.22117 25.5446C3.31521 25.6491 3.42686 25.7319 3.54973 25.7884C3.67261 25.8449 3.80431 25.874 3.93729 25.8739H7.98729C8.12028 25.874 8.25197 25.8449 8.37485 25.7884C8.49773 25.7319 8.60937 25.6491 8.70341 25.5446C8.79744 25.4401 8.87202 25.316 8.92288 25.1795C8.97373 25.043 8.99987 24.8967 8.99979 24.7489V11.2489C8.99987 11.1011 8.97373 10.9548 8.92287 10.8183C8.87202 10.6817 8.79744 10.5577 8.70341 10.4532C8.60937 10.3487 8.49772 10.2659 8.37485 10.2094C8.25197 10.1529 8.12028 10.1238 7.98729 10.1239ZM6.97479 23.6239H4.94979V12.3739H6.97479V23.6239ZM5.97712 1.73477C5.53401 1.7053 5.09014 1.77628 4.67249 1.9434C4.25485 2.11051 3.87216 2.37027 3.5477 2.70687C3.22324 3.04348 2.96379 3.44989 2.78512 3.90141C2.60646 4.35292 2.51232 4.84009 2.50843 5.3333C2.50453 5.8265 2.59097 6.31544 2.76247 6.77036C2.93398 7.22529 3.18697 7.6367 3.50606 7.97958C3.82516 8.32246 4.20369 8.58963 4.61863 8.76487C5.03357 8.9401 5.47626 9.01972 5.91977 8.99889H5.94844C6.39272 9.02821 6.83772 8.95657 7.25624 8.78835C7.67476 8.62013 8.05802 8.35885 8.38259 8.02049C8.70716 7.68213 8.96624 7.27379 9.14398 6.82042C9.32172 6.36705 9.4144 5.87817 9.41635 5.38366C9.4183 4.88915 9.32949 4.39939 9.15533 3.9443C8.98117 3.48922 8.72534 3.07837 8.40345 2.73686C8.08156 2.39535 7.70038 2.13035 7.2832 1.95805C6.86602 1.78575 6.42162 1.70978 5.97712 1.73477ZM5.94845 6.74889H5.91977C5.74467 6.77252 5.56705 6.75427 5.39883 6.69538C5.2306 6.63648 5.07565 6.5383 4.94437 6.40742C4.81309 6.27653 4.70851 6.11597 4.63765 5.9365C4.56679 5.75704 4.53129 5.56281 4.53352 5.36684C4.53352 4.52748 5.10009 3.98476 5.97712 3.98476C6.15401 3.95856 6.33389 3.97478 6.50465 4.03233C6.67542 4.08988 6.8331 4.18742 6.96708 4.31838C7.10106 4.44934 7.20823 4.61069 7.28136 4.79154C7.3545 4.9724 7.3919 5.16857 7.39106 5.36684C7.39106 6.20619 6.8245 6.74889 5.94845 6.74889Z" fill="#6F5FDB"/>
</svg>
